
<!-- Generator: visioncortex VTracer 0.6.4 -->
<svg version="1.1" xmlns="http://www.w3.org/2000/svg" viewBox="0 0 1024 1024" preserveAspectRatio="xMidYMid meet">
<path d="M0 0 C0.642 -0.004 1.283 -0.007 1.944 -0.011 C4.105 -0.022 6.266 -0.026 8.426 -0.03 C9.972 -0.036 11.518 -0.043 13.064 -0.05 C18.156 -0.071 23.248 -0.081 28.34 -0.091 C30.098 -0.095 31.855 -0.099 33.612 -0.103 C41.882 -0.123 50.152 -0.137 58.423 -0.145 C67.934 -0.155 77.445 -0.181 86.956 -0.222 C94.325 -0.252 101.693 -0.267 109.062 -0.27 C113.452 -0.272 117.843 -0.281 122.234 -0.306 C146.019 -0.437 166.566 0.987 188.813 10.147 C191.471 11.224 194.091 12.24 196.813 13.147 C197.816 14.144 198.816 15.145 199.813 16.147 C201.48 17.242 203.17 18.301 204.876 19.335 C237.368 39.728 258.695 71.37 267.872 108.268 C276.427 146.295 268.857 185.807 248.18 218.604 C245.064 223.371 241.597 227.859 238.055 232.315 C235.52 235.518 233.15 238.798 230.813 242.147 C232.885 245.802 235.202 248.903 237.938 252.085 C259.557 278.293 271.28 310.9 271.126 344.835 C271.12 346.145 271.114 347.456 271.109 348.807 C270.635 386.905 255.302 420.971 228.813 448.147 C227.779 449.292 227.779 449.292 226.723 450.46 C219.749 457.956 211.296 463.509 202.813 469.147 C201.814 469.82 200.815 470.493 199.786 471.186 C182.096 482.302 160.561 488.086 139.794 488.971 C136.812 489.084 136.812 489.084 133.919 489.694 C130.194 490.237 126.666 490.024 122.938 489.71 C122.25 489.657 121.561 489.605 120.852 489.551 C119.172 489.423 117.492 489.286 115.813 489.147 C115.813 489.807 115.813 490.467 115.813 491.147 C111.146 490.481 106.48 489.814 101.813 489.147 C101.483 489.807 101.153 490.467 100.813 491.147 C100.813 490.487 100.813 489.827 100.813 489.147 C95.405 489.77 95.405 489.77 90.063 490.772 C86.582 491.352 84.114 490.247 80.813 489.147 C80.813 489.807 80.813 490.467 80.813 491.147 C79.084 491.005 77.355 490.858 75.626 490.71 C74.663 490.628 73.7 490.547 72.708 490.464 C70.027 490.171 67.447 489.72 64.813 489.147 C64.813 489.807 64.813 490.467 64.813 491.147 C63.163 490.487 61.513 489.827 59.813 489.147 C59.813 489.807 59.813 490.467 59.813 491.147 C57.503 491.147 55.193 491.147 52.813 491.147 C52.813 490.487 52.813 489.827 52.813 489.147 C51.493 489.147 50.173 489.147 48.813 489.147 C48.483 489.807 48.153 490.467 47.813 491.147 C47.813 490.487 47.813 489.827 47.813 489.147 C47.198 489.292 46.583 489.436 45.95 489.585 C45.142 489.77 44.333 489.956 43.501 490.147 C42.7 490.333 41.9 490.518 41.075 490.71 C38.813 491.147 38.813 491.147 35.813 491.147 C34.576 491.209 34.576 491.209 33.313 491.272 C30.813 491.147 30.813 491.147 27.813 489.147 C27.813 489.807 27.813 490.467 27.813 491.147 C27.153 490.817 26.493 490.487 25.813 490.147 C25.483 490.477 25.153 490.807 24.813 491.147 C24.483 490.487 24.153 489.827 23.813 489.147 C23.029 489.333 22.246 489.518 21.438 489.71 C18.813 490.147 18.813 490.147 16.813 489.147 C16.483 489.807 16.153 490.467 15.813 491.147 C15.256 490.962 14.699 490.776 14.126 490.585 C11.415 490.072 9.489 490.584 6.813 491.147 C6.153 490.817 5.493 490.487 4.813 490.147 C3.327 490.052 1.837 490.016 0.348 490.014 C-0.975 490.012 -0.975 490.012 -2.326 490.01 C-3.249 490.014 -4.173 490.018 -5.124 490.022 C-6.044 490.018 -6.964 490.014 -7.911 490.01 C-9.237 490.012 -9.237 490.012 -10.589 490.014 C-11.399 490.015 -12.208 490.017 -13.042 490.018 C-15.373 490.066 -15.373 490.066 -18.187 491.147 C-18.187 490.487 -18.187 489.827 -18.187 489.147 C-18.847 489.147 -19.507 489.147 -20.187 489.147 C-20.187 489.807 -20.187 490.467 -20.187 491.147 C-20.847 490.817 -21.507 490.487 -22.187 490.147 C-24.558 489.917 -26.934 489.736 -29.312 489.585 C-30.593 489.501 -31.875 489.417 -33.195 489.331 C-34.182 489.27 -35.17 489.21 -36.187 489.147 C-36.187 489.807 -36.187 490.467 -36.187 491.147 C-41.187 491.147 -46.187 491.147 -51.187 491.147 C-51.187 490.487 -51.187 489.827 -51.187 489.147 C-52.507 489.147 -53.827 489.147 -55.187 489.147 C-55.187 489.807 -55.187 490.467 -55.187 491.147 C-57.497 491.147 -59.807 491.147 -62.187 491.147 C-62.187 490.817 -62.187 490.487 -62.187 490.147 C-65.157 489.817 -68.127 489.487 -71.187 489.147 C-71.187 489.807 -71.187 490.467 -71.187 491.147 C-71.851 491.075 -72.515 491.003 -73.199 490.928 C-74.082 490.836 -74.965 490.743 -75.874 490.647 C-76.744 490.554 -77.615 490.462 -78.511 490.366 C-81.087 490.155 -83.604 490.113 -86.187 490.147 C-88.815 490.147 -91.269 489.949 -93.874 489.647 C-94.683 489.554 -95.491 489.462 -96.324 489.366 C-96.938 489.294 -97.553 489.222 -98.187 489.147 C-98.517 489.807 -98.847 490.467 -99.187 491.147 C-99.187 490.487 -99.187 489.827 -99.187 489.147 C-100.507 489.147 -101.827 489.147 -103.187 489.147 C-103.517 489.807 -103.847 490.467 -104.187 491.147 C-109.431 489.399 -112.385 487.257 -116.187 483.147 C-118.08 479.361 -117.181 475.141 -116.187 471.147 C-114.449 468.259 -112.248 466.084 -109.812 463.772 C-108.52 462.471 -107.228 461.169 -105.937 459.866 C-105.296 459.234 -104.656 458.603 -103.995 457.952 C-101.508 455.469 -99.165 452.883 -96.812 450.272 C-91.636 444.607 -86.375 439.024 -81.107 433.445 C-77.096 429.192 -73.12 424.91 -69.187 420.585 C-65.604 416.653 -61.931 412.857 -58.138 409.129 C-56.317 407.28 -54.612 405.381 -52.921 403.413 C-49.28 399.223 -45.506 395.175 -41.687 391.147 C-40.28 389.659 -38.874 388.171 -37.468 386.682 C-36.759 385.932 -36.05 385.182 -35.32 384.409 C-32.575 381.498 -29.845 378.574 -27.116 375.65 C-9.112 356.374 -9.112 356.374 -4.823 355.869 C-3.883 355.855 -2.943 355.842 -1.974 355.828 C-0.894 355.808 0.187 355.789 1.301 355.768 C2.488 355.757 3.676 355.745 4.899 355.733 C6.778 355.704 6.778 355.704 8.695 355.674 C12.14 355.624 15.584 355.583 19.029 355.546 C21.185 355.522 23.341 355.494 25.497 355.465 C42.766 355.228 60.034 355.117 77.305 355.124 C78.493 355.124 78.493 355.124 79.705 355.125 C87.44 355.128 95.175 355.141 102.909 355.175 C105.772 355.186 108.635 355.195 111.498 355.202 C113.461 355.209 115.424 355.222 117.387 355.235 C119.147 355.24 119.147 355.24 120.943 355.245 C121.962 355.25 122.98 355.255 124.03 355.261 C126.73 355.151 129.184 354.756 131.813 354.147 C134.411 347.315 134.143 340.874 134.126 333.647 C134.15 331.688 134.15 331.688 134.174 329.69 C134.175 327.797 134.175 327.797 134.176 325.866 C134.179 324.721 134.182 323.575 134.185 322.395 C133.751 318.606 132.971 316.298 130.813 313.147 C124.99 310.261 118.525 310.87 112.186 310.892 C110.236 310.886 108.285 310.881 106.335 310.875 C104.247 310.871 102.159 310.871 100.071 310.873 C95.713 310.876 91.355 310.861 86.997 310.844 C74.608 310.797 62.219 310.773 49.83 310.766 C42.981 310.763 36.132 310.745 29.283 310.711 C24.952 310.691 20.622 310.689 16.291 310.699 C12.964 310.703 9.638 310.68 6.311 310.661 C5.113 310.67 3.916 310.678 2.682 310.686 C-5.414 310.605 -5.414 310.605 -9.405 308.24 C-12.868 304.172 -12.366 300.302 -12.408 295.181 C-12.425 293.786 -12.425 293.786 -12.443 292.361 C-12.48 289.264 -12.509 286.167 -12.538 283.069 C-12.562 280.905 -12.585 278.741 -12.609 276.577 C-12.657 272.02 -12.702 267.464 -12.744 262.907 C-12.799 257.13 -12.863 251.352 -12.93 245.574 C-12.98 241.091 -13.025 236.607 -13.069 232.123 C-13.09 229.997 -13.113 227.872 -13.138 225.746 C-13.217 218.879 -13.238 212.015 -13.187 205.147 C-13.182 204.129 -13.177 203.112 -13.172 202.063 C-13.145 199.033 -13.081 196.006 -13.005 192.976 C-12.999 192.06 -12.993 191.144 -12.986 190.2 C-12.83 185.68 -12.657 183.738 -9.761 180.095 C-6.136 177.352 -4.412 177.019 0.076 176.996 C1.192 176.987 2.308 176.979 3.458 176.97 C4.688 176.966 5.918 176.962 7.186 176.958 C9.168 176.945 11.149 176.932 13.131 176.92 C15.265 176.907 17.399 176.896 19.533 176.887 C23.979 176.867 28.424 176.839 32.87 176.81 C42.309 176.75 51.749 176.698 61.188 176.647 C71.371 176.592 81.554 176.536 91.737 176.47 C96.156 176.441 100.576 176.418 104.995 176.398 C107.083 176.388 109.171 176.375 111.259 176.362 C113.805 176.345 116.351 176.333 118.897 176.324 C120.019 176.316 121.141 176.307 122.296 176.299 C123.271 176.294 124.245 176.288 125.249 176.283 C127.585 176.159 129.578 175.81 131.813 175.147 C133.882 168.343 134.115 162.045 134.063 154.96 C134.071 153.893 134.079 152.826 134.087 151.727 C134.084 150.697 134.081 149.666 134.079 148.604 C134.075 147.212 134.075 147.212 134.072 145.791 C133.791 142.923 132.921 140.791 131.813 138.147 C131.813 137.157 131.813 136.167 131.813 135.147 C127.771 133.642 124.422 132.898 120.114 132.902 C119.002 132.898 117.891 132.894 116.745 132.89 C115.54 132.896 114.336 132.902 113.094 132.908 C111.129 132.905 109.164 132.901 107.198 132.898 C105.094 132.896 102.99 132.899 100.886 132.903 C96.494 132.911 92.103 132.9 87.711 132.886 C75.227 132.848 62.742 132.83 50.257 132.842 C43.355 132.848 36.454 132.836 29.552 132.805 C25.188 132.787 20.824 132.79 16.46 132.809 C13.107 132.818 9.755 132.794 6.403 132.775 C5.196 132.787 3.989 132.798 2.745 132.811 C-6.332 132.709 -6.332 132.709 -9.411 129.67 C-9.997 128.838 -10.583 128.005 -11.187 127.147 C-11.517 126.817 -11.847 126.487 -12.187 126.147 C-12.316 124.271 -12.375 122.39 -12.408 120.509 C-12.431 119.291 -12.454 118.072 -12.478 116.817 C-12.498 115.461 -12.519 114.105 -12.538 112.749 C-12.562 111.341 -12.586 109.933 -12.61 108.526 C-12.687 103.941 -12.75 99.357 -12.812 94.772 C-12.823 93.997 -12.833 93.222 -12.844 92.423 C-13.127 71.927 -13.336 51.43 -13.045 30.933 C-13.015 28.75 -12.991 26.568 -12.974 24.386 C-12.947 21.378 -12.893 18.373 -12.831 15.366 C-12.825 14.06 -12.825 14.06 -12.818 12.727 C-12.672 7.63 -12.051 4.829 -8.187 1.147 C-5.401 -0.246 -3.118 0.012 0 0 Z M-41.187 489.147 C-37.187 490.147 -37.187 490.147 -37.187 490.147 Z " fill="#3E4953" transform="translate(540.1868743896484,267.8528289794922)"/>
<path d="M0 0 C1.62 0 3.239 0 4.859 -0 C10.11 0.001 15.362 0.013 20.613 0.027 C21.51 0.029 22.407 0.032 23.331 0.034 C31.802 0.055 40.272 0.08 48.743 0.115 C59.537 0.16 70.331 0.184 81.125 0.181 C88.743 0.181 96.361 0.203 103.979 0.243 C108.52 0.266 113.061 0.278 117.602 0.267 C121.863 0.256 126.122 0.274 130.383 0.314 C131.945 0.323 133.507 0.323 135.069 0.311 C137.202 0.297 139.332 0.319 141.466 0.351 C142.658 0.354 143.851 0.357 145.08 0.36 C148.436 1.166 150.269 2.123 152.313 4.954 C154.456 10.007 153.908 15.676 153.858 21.072 C153.863 22.515 153.87 23.958 153.88 25.401 C153.899 29.363 153.886 33.324 153.869 37.286 C153.856 41.56 153.871 45.834 153.883 50.108 C153.901 58.48 153.893 66.852 153.875 75.224 C153.861 82.029 153.857 88.834 153.86 95.638 C153.861 96.607 153.861 97.575 153.862 98.573 C153.863 100.539 153.864 102.506 153.865 104.473 C153.873 121.871 153.857 139.269 153.827 156.666 C153.798 173.547 153.791 190.427 153.806 207.307 C153.823 225.687 153.827 244.067 153.81 262.447 C153.808 264.407 153.806 266.367 153.804 268.328 C153.803 269.292 153.802 270.257 153.801 271.251 C153.796 278.046 153.799 284.841 153.806 291.636 C153.813 299.919 153.807 308.202 153.782 316.485 C153.769 320.711 153.763 324.937 153.774 329.163 C153.784 333.033 153.776 336.903 153.753 340.773 C153.747 342.171 153.749 343.569 153.758 344.968 C153.813 354.312 153.192 360.551 146.898 367.804 C145.67 368.949 145.67 368.949 144.417 370.117 C141.317 373.086 138.333 376.041 135.542 379.304 C132.825 382.48 129.952 385.416 126.972 388.344 C125.183 390.165 123.517 392.054 121.855 393.992 C119.264 397.002 116.557 399.828 113.73 402.617 C110.309 405.992 107.122 409.479 104 413.129 C101.409 416.039 98.628 418.742 95.832 421.453 C94.144 423.041 94.144 423.041 93.23 425.117 C92.57 425.117 91.91 425.117 91.23 425.117 C90.997 425.679 90.763 426.241 90.523 426.82 C88.911 429.684 86.911 431.589 84.542 433.867 C81.522 436.823 78.587 439.767 75.855 442.992 C72.216 447.26 68.237 451.164 64.229 455.081 C61.369 457.823 61.369 457.823 59.23 461.117 C58.57 461.117 57.91 461.117 57.23 461.117 C57.01 461.679 56.789 462.241 56.562 462.82 C48.636 476.488 28.186 484.875 13.957 489.086 C-10.976 495.137 -38.748 491.383 -60.77 478.117 C-65.345 475.075 -69.576 471.663 -73.77 468.117 C-74.295 467.69 -74.82 467.263 -75.361 466.823 C-78.062 464.62 -80.515 462.45 -82.708 459.742 C-87.073 454.582 -91.944 449.923 -96.791 445.221 C-97.433 444.591 -98.074 443.961 -98.735 443.312 C-99.611 442.462 -99.611 442.462 -100.504 441.594 C-101.77 440.117 -101.77 440.117 -101.77 438.117 C-102.43 438.117 -103.09 438.117 -103.77 438.117 C-105.286 436.578 -105.286 436.578 -107.02 434.492 C-109.317 431.776 -111.642 429.204 -114.208 426.742 C-116.77 424.117 -116.77 424.117 -116.77 422.117 C-117.43 422.117 -118.09 422.117 -118.77 422.117 C-120.215 420.668 -120.215 420.668 -121.895 418.652 C-125.721 414.154 -129.715 409.846 -133.77 405.554 C-134.779 404.48 -134.779 404.48 -135.809 403.385 C-139.563 399.402 -143.378 395.495 -147.261 391.638 C-159.183 379.624 -162.915 371.308 -162.938 354.586 C-162.941 353.71 -162.945 352.834 -162.948 351.931 C-162.953 350.093 -162.955 348.254 -162.955 346.415 C-162.958 343.624 -162.976 340.834 -162.995 338.043 C-162.998 336.245 -163 334.446 -163 332.648 C-163.008 331.826 -163.015 331.004 -163.022 330.157 C-163.001 324.766 -162.771 319.184 -160.77 314.117 C-157.544 311.966 -156.674 311.863 -152.956 311.843 C-151.965 311.833 -150.974 311.823 -149.953 311.813 C-148.866 311.812 -147.78 311.811 -146.661 311.811 C-145.516 311.802 -144.371 311.794 -143.191 311.785 C-139.396 311.761 -135.601 311.752 -131.805 311.746 C-129.173 311.737 -126.542 311.728 -123.91 311.718 C-118.389 311.701 -112.869 311.694 -107.348 311.691 C-100.967 311.688 -94.587 311.658 -88.206 311.616 C-82.067 311.577 -75.929 311.566 -69.79 311.565 C-67.178 311.56 -64.566 311.548 -61.954 311.527 C-58.305 311.5 -54.658 311.505 -51.009 311.518 C-49.924 311.503 -48.84 311.488 -47.723 311.473 C-40.414 311.544 -40.414 311.544 -37.114 314.479 C-34.396 319.815 -34.638 325.316 -34.629 331.183 C-34.611 332.736 -34.592 334.289 -34.571 335.842 C-34.542 338.267 -34.52 340.691 -34.52 343.116 C-34.516 345.472 -34.482 347.827 -34.442 350.183 C-34.452 351.265 -34.452 351.265 -34.463 352.368 C-34.373 356.12 -33.849 358.007 -31.63 361.071 C-28.236 363.499 -26.472 363.76 -22.333 363.781 C-21.108 363.787 -19.883 363.794 -18.622 363.801 C-16.715 363.772 -16.715 363.772 -14.77 363.742 C-13.499 363.761 -12.228 363.781 -10.918 363.801 C-3.867 363.792 -3.867 363.792 2.542 361.203 C6.111 354.677 5.378 346.26 5.364 338.951 C5.367 337.653 5.367 337.653 5.371 336.329 C5.377 333.461 5.376 330.592 5.375 327.724 C5.378 325.655 5.382 323.586 5.385 321.517 C5.394 315.92 5.397 310.323 5.397 304.726 C5.398 301.228 5.4 297.729 5.403 294.23 C5.412 282.02 5.416 269.809 5.415 257.598 C5.415 246.221 5.425 234.845 5.441 223.468 C5.454 213.69 5.459 203.913 5.459 194.135 C5.459 188.299 5.461 182.463 5.472 176.628 C5.482 171.144 5.482 165.66 5.474 160.176 C5.473 158.165 5.476 156.154 5.482 154.143 C5.49 151.396 5.485 148.649 5.477 145.902 C5.485 144.711 5.485 144.711 5.493 143.496 C5.463 138.676 4.932 134.649 3.23 130.117 C-0.965 127.139 -4.465 126.763 -9.524 126.816 C-10.79 126.808 -12.057 126.799 -13.362 126.791 C-16.013 126.8 -18.664 126.821 -21.315 126.853 C-22.58 126.841 -23.845 126.829 -25.149 126.816 C-26.299 126.825 -27.45 126.833 -28.635 126.842 C-32.113 126.038 -33.541 124.889 -35.726 122.101 C-37.856 118.053 -37.443 113.614 -37.385 109.142 C-37.391 108.047 -37.396 106.952 -37.402 105.824 C-37.414 102.212 -37.39 98.6 -37.364 94.988 C-37.362 92.475 -37.362 89.962 -37.364 87.449 C-37.362 82.186 -37.344 76.923 -37.312 71.66 C-37.275 65.582 -37.266 59.504 -37.273 53.426 C-37.28 47.569 -37.269 41.712 -37.249 35.854 C-37.242 33.366 -37.239 30.878 -37.24 28.389 C-37.238 24.913 -37.217 21.438 -37.19 17.962 C-37.193 16.933 -37.196 15.904 -37.199 14.844 C-37.093 6.035 -37.093 6.035 -33.77 2.117 C-24.91 -2.313 -9.818 -0.024 0 0 Z " fill="#0189D1" transform="translate(343.77001953125,266.883056640625)"/>
<path d="M0 0 C1.62 0 3.239 0 4.859 -0 C10.11 0.001 15.362 0.013 20.613 0.027 C21.51 0.029 22.407 0.032 23.331 0.034 C31.802 0.055 40.272 0.08 48.743 0.115 C59.537 0.16 70.331 0.184 81.125 0.181 C88.743 0.181 96.361 0.203 103.979 0.243 C108.52 0.266 113.061 0.278 117.602 0.267 C121.863 0.256 126.122 0.274 130.383 0.314 C131.945 0.323 133.507 0.323 135.069 0.311 C137.202 0.297 139.332 0.319 141.466 0.351 C142.658 0.354 143.851 0.357 145.08 0.36 C148.435 1.166 150.27 2.122 152.313 4.954 C154.456 10.011 153.904 15.686 153.851 21.085 C153.856 22.53 153.862 23.975 153.871 25.419 C153.888 29.385 153.874 33.35 153.854 37.315 C153.839 41.594 153.852 45.872 153.862 50.15 C153.877 58.529 153.864 66.908 153.843 75.288 C153.819 85.044 153.821 94.8 153.823 104.556 C153.827 121.963 153.806 139.37 153.772 156.776 C153.739 173.67 153.725 190.564 153.731 207.458 C153.738 225.85 153.735 244.243 153.716 262.635 C153.715 263.607 153.714 264.58 153.712 265.582 C153.71 267.535 153.708 269.488 153.706 271.441 C153.699 278.243 153.699 285.045 153.7 291.847 C153.701 300.136 153.692 308.424 153.668 316.712 C153.656 320.942 153.649 325.171 153.655 329.401 C153.66 333.272 153.651 337.143 153.632 341.015 C153.627 342.416 153.627 343.817 153.633 345.218 C153.64 347.121 153.627 349.025 153.613 350.929 C153.611 352.516 153.611 352.516 153.608 354.134 C153.166 357.623 151.949 360.073 150.23 363.117 C149.9 362.457 149.57 361.797 149.23 361.117 C149.56 360.457 149.89 359.797 150.23 359.117 C150.327 357.202 150.359 355.284 150.361 353.366 C150.365 352.135 150.369 350.903 150.373 349.634 C150.372 348.254 150.371 346.875 150.37 345.495 C150.373 344.04 150.376 342.584 150.379 341.128 C150.388 337.114 150.389 333.1 150.39 329.085 C150.392 324.761 150.399 320.437 150.406 316.114 C150.42 306.653 150.426 297.193 150.43 287.732 C150.433 281.829 150.437 275.926 150.442 270.024 C150.454 253.693 150.464 237.362 150.468 221.032 C150.468 219.986 150.468 218.94 150.468 217.863 C150.468 216.814 150.469 215.766 150.469 214.686 C150.469 212.562 150.47 210.437 150.47 208.313 C150.47 207.259 150.471 206.205 150.471 205.12 C150.475 188.034 150.492 170.948 150.516 153.863 C150.539 136.337 150.552 118.812 150.553 101.287 C150.554 91.44 150.56 81.594 150.578 71.747 C150.593 63.365 150.598 54.983 150.59 46.6 C150.586 42.321 150.587 38.041 150.601 33.761 C150.614 29.847 150.613 25.934 150.6 22.02 C150.598 20.6 150.602 19.18 150.61 17.76 C150.621 15.838 150.612 13.916 150.602 11.993 C150.603 10.388 150.603 10.388 150.604 8.751 C150.436 6.102 150.436 6.102 148.902 4.273 C146.138 2.362 143.477 2.746 140.17 2.749 C139.085 2.745 139.085 2.745 137.978 2.74 C135.548 2.732 133.119 2.746 130.689 2.76 C128.95 2.76 127.21 2.758 125.471 2.754 C120.741 2.749 116.012 2.763 111.283 2.78 C106.34 2.795 101.396 2.794 96.453 2.794 C88.151 2.798 79.848 2.813 71.546 2.836 C60.882 2.865 50.219 2.875 39.555 2.879 C30.397 2.883 21.239 2.896 12.081 2.91 C9.132 2.914 6.184 2.917 3.235 2.92 C-1.394 2.924 -6.023 2.935 -10.653 2.949 C-12.354 2.953 -14.056 2.956 -15.757 2.957 C-18.075 2.959 -20.392 2.967 -22.71 2.977 C-24.658 2.981 -24.658 2.981 -26.645 2.986 C-29.802 2.974 -29.802 2.974 -32.77 4.117 C-35.312 10.11 -35.052 17.094 -35.013 23.483 C-35.015 24.477 -35.017 25.472 -35.019 26.497 C-35.022 29.758 -35.012 33.02 -35 36.281 C-34.999 38.561 -34.999 40.84 -34.999 43.12 C-34.998 47.886 -34.989 52.652 -34.976 57.418 C-34.959 63.518 -34.955 69.619 -34.956 75.72 C-34.956 80.423 -34.95 85.126 -34.943 89.829 C-34.94 92.078 -34.938 94.327 -34.937 96.577 C-34.935 99.721 -34.926 102.866 -34.915 106.01 C-34.916 106.934 -34.916 107.858 -34.917 108.809 C-34.893 113.684 -34.593 118.31 -33.77 123.117 C-35.771 121.475 -36.686 120.586 -37.148 117.997 C-37.149 117.173 -37.15 116.349 -37.151 115.5 C-37.159 114.552 -37.168 113.605 -37.177 112.628 C-37.171 111.59 -37.164 110.552 -37.158 109.483 C-37.163 108.388 -37.169 107.294 -37.174 106.166 C-37.187 102.537 -37.179 98.909 -37.168 95.281 C-37.17 92.764 -37.173 90.247 -37.177 87.729 C-37.182 82.448 -37.175 77.167 -37.161 71.886 C-37.145 65.786 -37.15 59.686 -37.167 53.586 C-37.182 47.714 -37.18 41.843 -37.171 35.971 C-37.169 33.474 -37.172 30.978 -37.179 28.481 C-37.187 24.99 -37.175 21.501 -37.158 18.01 C-37.164 16.976 -37.17 15.942 -37.177 14.877 C-37.098 6.029 -37.098 6.029 -33.77 2.117 C-24.91 -2.313 -9.818 -0.024 0 0 Z M-33.77 123.117 C-32.988 123.355 -32.988 123.355 -32.191 123.597 C-29.119 124.257 -26.177 124.337 -23.036 124.433 C-21.74 124.475 -20.445 124.517 -19.11 124.56 C-17.747 124.6 -16.383 124.64 -15.02 124.679 C-13.641 124.723 -12.262 124.766 -10.883 124.81 C-7.512 124.916 -4.141 125.018 -0.77 125.117 C-0.77 125.447 -0.77 125.777 -0.77 126.117 C-7.241 127.339 -13.521 127.126 -20.083 126.867 C-21.727 126.826 -21.727 126.826 -23.405 126.785 C-24.972 126.725 -24.972 126.725 -26.571 126.664 C-27.996 126.615 -27.996 126.615 -29.451 126.565 C-30.216 126.417 -30.982 126.269 -31.77 126.117 C-32.43 125.127 -33.09 124.137 -33.77 123.117 Z M148.23 363.117 C148.23 366.117 148.23 366.117 146.507 368.097 C145.349 369.19 145.349 369.19 144.167 370.304 C141.177 373.192 138.308 376.084 135.605 379.242 C132.865 382.436 129.973 385.396 126.972 388.344 C125.183 390.165 123.517 392.054 121.855 393.992 C119.264 397.002 116.557 399.828 113.73 402.617 C110.309 405.992 107.122 409.479 104 413.129 C101.409 416.039 98.628 418.742 95.832 421.453 C94.144 423.041 94.144 423.041 93.23 425.117 C92.57 425.117 91.91 425.117 91.23 425.117 C92.688 421.722 94.568 419.594 97.23 417.054 C99.604 414.78 101.393 412.872 103.23 410.117 C103.89 410.117 104.55 410.117 105.23 410.117 C105.432 409.586 105.635 409.055 105.843 408.508 C107.835 405.075 110.575 402.608 113.417 399.867 C117.674 395.694 121.764 391.488 125.625 386.941 C128.035 384.202 130.654 381.684 133.253 379.125 C135.813 376.525 138.177 373.781 140.554 371.015 C142.993 368.253 145.593 365.69 148.23 363.117 Z M90.23 425.117 C90.23 428.117 90.23 428.117 87.824 430.816 C86.8 431.82 85.768 432.816 84.73 433.804 C84.205 434.316 83.681 434.827 83.14 435.353 C81.843 436.615 80.538 437.867 79.23 439.117 C79.23 436.117 79.23 436.117 80.621 434.433 C81.234 433.855 81.848 433.276 82.48 432.679 C83.115 432.071 83.751 431.463 84.406 430.836 C85.309 429.985 85.309 429.985 86.23 429.117 C87.034 428.313 87.839 427.508 88.667 426.679 C89.183 426.164 89.699 425.648 90.23 425.117 Z M76.23 439.117 C76.89 439.117 77.55 439.117 78.23 439.117 C76.773 442.48 74.919 444.662 72.316 447.226 C71.555 447.98 70.795 448.735 70.011 449.511 C69.217 450.289 68.423 451.066 67.605 451.867 C66.803 452.66 66.001 453.452 65.175 454.269 C63.198 456.223 61.216 458.172 59.23 460.117 C59.23 457.117 59.23 457.117 61.425 454.664 C62.395 453.725 63.372 452.793 64.355 451.867 C67.662 448.676 70.875 445.487 73.792 441.929 C74.597 441.001 75.401 440.073 76.23 439.117 Z M56.23 460.117 C56.89 460.447 57.55 460.777 58.23 461.117 C57.24 462.437 56.25 463.757 55.23 465.117 C54.57 464.787 53.91 464.457 53.23 464.117 C54.22 462.797 55.21 461.477 56.23 460.117 Z M51.23 465.117 C51.89 465.447 52.55 465.777 53.23 466.117 C52.9 466.777 52.57 467.437 52.23 468.117 C51.57 468.117 50.91 468.117 50.23 468.117 C50.56 467.127 50.89 466.137 51.23 465.117 Z M48.23 468.117 C49.22 468.612 49.22 468.612 50.23 469.117 C32.915 485.224 12.148 491.329 -11.02 491.429 C-12.682 491.438 -12.682 491.438 -14.378 491.446 C-22.385 491.374 -22.385 491.374 -25.77 489.117 C-25.091 489.133 -24.412 489.148 -23.713 489.165 C-4.544 489.552 -4.544 489.552 14.23 486.117 C15.257 485.839 16.285 485.56 17.343 485.273 C28.884 481.801 39.074 475.901 48.23 468.117 Z " fill="#1579B0" transform="translate(343.77001953125,266.883056640625)"/>
<path d="M0 0 C0.33 0 0.66 0 1 0 C1 10.89 1 21.78 1 33 C0.67 33 0.34 33 0 33 C0 22.11 0 11.22 0 0 Z M-1 33 C-0.67 33.99 -0.34 34.98 0 36 C-5.089 40.508 -8.931 41.118 -15.586 41.145 C-16.697 41.152 -17.809 41.159 -18.955 41.166 C-20.165 41.168 -21.375 41.171 -22.621 41.174 C-24.589 41.184 -26.556 41.194 -28.524 41.204 C-30.633 41.215 -32.743 41.223 -34.852 41.23 C-39.252 41.245 -43.651 41.269 -48.051 41.295 C-60.559 41.366 -73.068 41.426 -85.576 41.477 C-92.489 41.505 -99.402 41.54 -106.315 41.583 C-110.688 41.61 -115.062 41.628 -119.435 41.639 C-122.793 41.651 -126.15 41.675 -129.508 41.697 C-130.72 41.698 -131.932 41.698 -133.181 41.699 C-134.844 41.713 -134.844 41.713 -136.541 41.728 C-137.505 41.732 -138.468 41.737 -139.46 41.741 C-142.092 42.009 -143.74 42.661 -146 44 C-145 41 -145 41 -142 39 C-139.636 38.722 -139.636 38.722 -136.788 38.681 C-135.707 38.661 -134.626 38.641 -133.512 38.621 C-132.325 38.609 -131.137 38.598 -129.914 38.586 C-128.662 38.567 -127.409 38.547 -126.118 38.527 C-122.674 38.477 -119.229 38.436 -115.784 38.399 C-113.628 38.375 -111.472 38.347 -109.316 38.317 C-92.047 38.081 -74.779 37.97 -57.508 37.977 C-56.32 37.977 -56.32 37.977 -55.108 37.977 C-47.373 37.981 -39.638 37.994 -31.904 38.027 C-29.041 38.039 -26.178 38.047 -23.315 38.055 C-21.352 38.062 -19.389 38.075 -17.426 38.088 C-16.253 38.091 -15.079 38.094 -13.87 38.098 C-12.851 38.103 -11.833 38.108 -10.783 38.114 C-8.054 38.002 -5.631 37.74 -3 37 C-1.64 35.032 -1.64 35.032 -1 33 Z M-149 45 C-148.34 45 -147.68 45 -147 45 C-147 45.66 -147 46.32 -147 47 C-147.66 47 -148.32 47 -149 47 C-149 46.34 -149 45.68 -149 45 Z M-151 47 C-150.34 47.33 -149.68 47.66 -149 48 C-149.951 49.173 -150.911 50.338 -151.875 51.5 C-152.676 52.475 -152.676 52.475 -153.492 53.469 C-153.99 53.974 -154.487 54.479 -155 55 C-155.66 55 -156.32 55 -157 55 C-157.255 55.583 -157.51 56.165 -157.773 56.766 C-159.117 59.214 -160.618 60.817 -162.625 62.75 C-163.572 63.67 -163.572 63.67 -164.539 64.609 C-165.021 65.068 -165.503 65.527 -166 66 C-166 61.559 -163.107 59.538 -160.188 56.5 C-159.64 55.919 -159.093 55.337 -158.529 54.738 C-156.057 52.12 -153.553 49.54 -151 47 Z M-170 67 C-169.34 67.33 -168.68 67.66 -168 68 C-169.412 69.608 -170.83 71.211 -172.25 72.812 C-173.433 74.152 -173.433 74.152 -174.641 75.52 C-176.659 77.641 -178.599 79.343 -181 81 C-179.422 77.29 -177.093 74.701 -174.375 71.75 C-173.558 70.858 -172.74 69.966 -171.898 69.047 C-171.272 68.371 -170.645 67.696 -170 67 Z M-182 82 C-183.659 86.325 -186.871 89.094 -190.125 92.25 C-190.688 92.804 -191.252 93.359 -191.832 93.93 C-193.217 95.291 -194.608 96.646 -196 98 C-196 94.567 -195.668 94.262 -193.445 91.863 C-192.913 91.286 -192.381 90.71 -191.832 90.115 C-191.269 89.52 -190.705 88.925 -190.125 88.312 C-189.569 87.706 -189.014 87.099 -188.441 86.475 C-184.264 82 -184.264 82 -182 82 Z M-201 100 C-200.34 100.33 -199.68 100.66 -199 101 C-202.723 105.421 -206.295 109.578 -211 113 C-209.484 109.522 -207.423 107.044 -204.875 104.25 C-204.151 103.451 -203.426 102.652 -202.68 101.828 C-201.848 100.923 -201.848 100.923 -201 100 Z M-213 113 C-212.34 113.33 -211.68 113.66 -211 114 C-215.329 119.184 -219.766 123.727 -225 128 C-223.385 124.101 -220.721 121.287 -217.875 118.25 C-217.407 117.743 -216.939 117.237 -216.457 116.715 C-215.309 115.473 -214.155 114.236 -213 113 Z M-227 128 C-226.01 128.495 -226.01 128.495 -225 129 C-225.99 129.495 -225.99 129.495 -227 130 C-227 129.34 -227 128.68 -227 128 Z M-227 130 C-228.417 133.252 -230.125 135.314 -232.688 137.75 C-235.501 140.482 -238.146 143.263 -240.688 146.25 C-243.228 149.211 -245.83 151.694 -249 154 C-247.618 150.945 -245.995 148.67 -243.75 146.188 C-241.423 143.59 -239.123 140.98 -236.875 138.312 C-229.745 130 -229.745 130 -227 130 Z " fill="#1F272E" transform="translate(675,585)"/>
<path d="M0 0 C50.16 0 100.32 0 152 0 C152 0.33 152 0.66 152 1 C101.84 1 51.68 1 0 1 C0 0.67 0 0.34 0 0 Z M-4 1 C-2.68 1.33 -1.36 1.66 0 2 C-0.639 2.103 -1.279 2.206 -1.938 2.312 C-2.958 2.653 -2.958 2.653 -4 3 C-4.976 5.929 -5.135 7.837 -5.154 10.89 C-5.167 12.402 -5.167 12.402 -5.18 13.944 C-5.184 15.049 -5.188 16.154 -5.193 17.293 C-5.201 18.457 -5.209 19.622 -5.218 20.821 C-5.243 24.682 -5.259 28.542 -5.273 32.402 C-5.279 33.719 -5.284 35.035 -5.29 36.391 C-5.311 41.92 -5.33 47.448 -5.341 52.977 C-5.357 60.9 -5.391 68.823 -5.448 76.746 C-5.486 82.318 -5.506 87.89 -5.511 93.462 C-5.515 96.79 -5.529 100.117 -5.559 103.445 C-5.591 107.157 -5.591 110.867 -5.583 114.578 C-5.608 116.232 -5.608 116.232 -5.633 117.92 C-5.607 123.624 -5.607 123.624 -3.256 128.68 C1.976 130.801 7.091 130.569 12.685 130.546 C13.973 130.556 15.261 130.567 16.588 130.577 C20.113 130.605 23.637 130.608 27.162 130.608 C30.848 130.611 34.534 130.636 38.22 130.659 C45.197 130.7 52.174 130.72 59.151 130.733 C67.095 130.749 75.039 130.788 82.984 130.828 C99.322 130.91 115.661 130.965 132 131 C132 131.33 132 131.66 132 132 C114.615 132.117 97.23 132.205 79.845 132.259 C71.772 132.285 63.7 132.32 55.628 132.377 C48.592 132.427 41.557 132.459 34.521 132.47 C30.795 132.477 27.07 132.492 23.345 132.529 C19.186 132.569 15.028 132.57 10.868 132.568 C9.016 132.595 9.016 132.595 7.126 132.622 C-2.162 132.566 -2.162 132.566 -5.242 129.527 C-5.822 128.693 -6.402 127.859 -7 127 C-7.33 126.67 -7.66 126.34 -8 126 C-8.129 124.124 -8.189 122.242 -8.221 120.362 C-8.244 119.143 -8.267 117.925 -8.291 116.669 C-8.312 115.314 -8.332 113.958 -8.352 112.602 C-8.375 111.194 -8.399 109.786 -8.424 108.379 C-8.5 103.794 -8.563 99.21 -8.625 94.625 C-8.641 93.462 -8.641 93.462 -8.658 92.276 C-8.941 71.78 -9.149 51.283 -8.858 30.785 C-8.828 28.603 -8.804 26.421 -8.787 24.239 C-8.76 21.231 -8.707 18.226 -8.645 15.219 C-8.64 14.348 -8.636 13.477 -8.631 12.58 C-8.485 7.464 -7.819 4.749 -4 1 Z " fill="#1B1E21" transform="translate(536,268)"/>
<path d="M0 0 C0.991 -0.01 1.982 -0.02 3.004 -0.03 C4.09 -0.031 5.176 -0.032 6.296 -0.032 C7.44 -0.041 8.585 -0.049 9.765 -0.057 C13.56 -0.082 17.356 -0.09 21.151 -0.097 C23.783 -0.106 26.415 -0.115 29.046 -0.124 C34.567 -0.142 40.087 -0.149 45.608 -0.151 C51.989 -0.155 58.369 -0.185 64.75 -0.227 C70.889 -0.266 77.027 -0.277 83.166 -0.278 C85.778 -0.282 88.39 -0.295 91.002 -0.316 C94.651 -0.342 98.299 -0.338 101.948 -0.325 C103.032 -0.34 104.116 -0.355 105.234 -0.37 C112.543 -0.298 112.543 -0.298 115.842 2.638 C118.622 8.091 118.325 13.74 118.284 19.735 C118.282 20.921 118.282 20.921 118.28 22.131 C118.274 24.637 118.262 27.143 118.249 29.649 C118.244 31.356 118.239 33.063 118.235 34.77 C118.224 38.938 118.207 43.106 118.186 47.274 C115.564 44.651 115.942 42.775 115.91 39.204 C115.911 38.374 115.912 37.544 115.913 36.688 C115.893 34.936 115.872 33.183 115.85 31.43 C115.828 28.663 115.811 25.896 115.806 23.129 C115.796 20.461 115.762 17.794 115.725 15.126 C115.733 13.886 115.733 13.886 115.741 12.622 C115.728 11.848 115.714 11.074 115.701 10.277 C115.698 9.599 115.695 8.921 115.692 8.222 C114.872 5.063 113.926 4.114 111.186 2.274 C107.537 1.668 103.916 1.728 100.223 1.757 C99.106 1.75 97.988 1.743 96.837 1.735 C93.14 1.718 89.443 1.729 85.745 1.743 C83.18 1.74 80.614 1.736 78.049 1.731 C72.671 1.725 67.294 1.734 61.916 1.753 C55.698 1.774 49.481 1.767 43.263 1.745 C37.281 1.725 31.299 1.727 25.316 1.739 C22.77 1.742 20.225 1.738 17.679 1.729 C14.126 1.719 10.573 1.734 7.02 1.757 C5.962 1.748 4.904 1.74 3.813 1.732 C2.847 1.743 1.881 1.755 0.886 1.766 C-0.374 1.768 -0.374 1.768 -1.66 1.771 C-3.979 2.104 -3.979 2.104 -5.582 4.151 C-7.106 6.779 -7.212 8.514 -7.249 11.542 C-7.269 12.594 -7.288 13.646 -7.307 14.73 C-7.311 15.862 -7.314 16.994 -7.317 18.161 C-7.327 19.332 -7.337 20.504 -7.348 21.711 C-7.363 24.192 -7.37 26.672 -7.369 29.153 C-7.376 32.931 -7.43 36.706 -7.487 40.483 C-7.496 42.897 -7.502 45.31 -7.505 47.723 C-7.527 48.846 -7.548 49.968 -7.57 51.124 C-7.491 60.258 -4.491 65.187 1.495 71.841 C2.198 72.499 2.9 73.158 3.624 73.837 C14.162 84.019 14.162 84.019 17.186 90.274 C11.726 85.757 6.793 80.93 1.936 75.774 C0.877 74.674 0.877 74.674 -0.204 73.551 C-9.283 63.94 -9.964 55.491 -9.982 42.743 C-9.985 41.867 -9.988 40.991 -9.992 40.088 C-9.997 38.25 -9.999 36.411 -9.999 34.572 C-10.001 31.781 -10.019 28.991 -10.038 26.2 C-10.041 24.402 -10.043 22.604 -10.044 20.805 C-10.051 19.983 -10.058 19.161 -10.066 18.314 C-10.045 12.924 -9.815 7.341 -7.814 2.274 C-4.588 0.124 -3.718 0.02 0 0 Z M17.186 90.274 C18.176 90.604 19.166 90.934 20.186 91.274 C19.856 91.934 19.526 92.594 19.186 93.274 C18.526 92.284 17.866 91.294 17.186 90.274 Z M20.186 93.274 C23.923 94.52 24.374 95.908 26.186 99.274 C23.565 98.225 22.393 97.625 20.936 95.149 C20.689 94.53 20.441 93.912 20.186 93.274 Z M26.186 99.274 C30.326 102.574 33.773 105.447 36.186 110.274 C34.186 110.274 34.186 110.274 32.495 108.63 C31.569 107.556 31.569 107.556 30.624 106.462 C30.004 105.754 29.384 105.046 28.745 104.317 C27.186 102.274 27.186 102.274 26.186 99.274 Z M37.186 111.274 C38.836 112.924 40.486 114.574 42.186 116.274 C40.249 115.462 40.249 115.462 38.186 114.274 C37.856 113.284 37.526 112.294 37.186 111.274 Z M42.186 116.274 C44.496 118.254 46.806 120.234 49.186 122.274 C48.856 122.934 48.526 123.594 48.186 124.274 C47.18 123.322 46.182 122.362 45.186 121.399 C44.63 120.865 44.073 120.332 43.499 119.782 C42.186 118.274 42.186 118.274 42.186 116.274 Z " fill="#1673A7" transform="translate(190.81358337402344,578.7258453369141)"/>
<path d="M0 0 C80.19 0 160.38 0 243 0 C243 0.33 243 0.66 243 1 C238.271 1.994 233.907 1.966 229.125 1.562 C228.437 1.51 227.748 1.458 227.039 1.404 C225.359 1.276 223.679 1.139 222 1 C222 1.66 222 2.32 222 3 C217.333 2.333 212.667 1.667 208 1 C207.67 1.66 207.34 2.32 207 3 C207 2.34 207 1.68 207 1 C201.592 1.623 201.592 1.623 196.25 2.625 C192.769 3.205 190.301 2.1 187 1 C187 1.66 187 2.32 187 3 C185.271 2.858 183.541 2.711 181.812 2.562 C180.85 2.481 179.887 2.4 178.895 2.316 C176.214 2.023 173.634 1.573 171 1 C171 1.66 171 2.32 171 3 C169.35 2.34 167.7 1.68 166 1 C166 1.66 166 2.32 166 3 C163.69 3 161.38 3 159 3 C159 2.34 159 1.68 159 1 C157.68 1 156.36 1 155 1 C154.67 1.66 154.34 2.32 154 3 C154 2.34 154 1.68 154 1 C153.385 1.144 152.77 1.289 152.137 1.438 C151.328 1.623 150.52 1.809 149.688 2 C148.487 2.278 148.487 2.278 147.262 2.562 C145 3 145 3 142 3 C140.763 3.062 140.763 3.062 139.5 3.125 C137 3 137 3 134 1 C134 1.66 134 2.32 134 3 C133.01 2.505 133.01 2.505 132 2 C131.67 2.33 131.34 2.66 131 3 C130.67 2.34 130.34 1.68 130 1 C129.216 1.186 128.433 1.371 127.625 1.562 C125 2 125 2 123 1 C122.67 1.66 122.34 2.32 122 3 C121.443 2.814 120.886 2.629 120.312 2.438 C117.602 1.925 115.676 2.437 113 3 C112.01 2.505 112.01 2.505 111 2 C109.514 1.905 108.024 1.869 106.535 1.867 C105.212 1.865 105.212 1.865 103.861 1.863 C102.938 1.867 102.014 1.871 101.062 1.875 C100.143 1.871 99.223 1.867 98.275 1.863 C96.95 1.865 96.95 1.865 95.598 1.867 C94.383 1.869 94.383 1.869 93.145 1.871 C90.814 1.918 90.814 1.918 88 3 C88 2.34 88 1.68 88 1 C87.34 1 86.68 1 86 1 C86 1.66 86 2.32 86 3 C85.01 2.505 85.01 2.505 84 2 C81.629 1.77 79.253 1.589 76.875 1.438 C75.594 1.354 74.312 1.27 72.992 1.184 C72.005 1.123 71.017 1.062 70 1 C70 1.66 70 2.32 70 3 C65 3 60 3 55 3 C55 2.34 55 1.68 55 1 C53.68 1 52.36 1 51 1 C51 1.66 51 2.32 51 3 C48.69 3 46.38 3 44 3 C44 2.67 44 2.34 44 2 C41.03 1.67 38.06 1.34 35 1 C35 1.66 35 2.32 35 3 C34.336 2.928 33.672 2.856 32.988 2.781 C32.105 2.688 31.222 2.596 30.312 2.5 C29.442 2.407 28.572 2.314 27.676 2.219 C25.1 2.008 22.583 1.966 20 2 C17.372 2 14.918 1.802 12.312 1.5 C11.504 1.407 10.696 1.314 9.863 1.219 C9.248 1.147 8.634 1.074 8 1 C7.67 1.66 7.34 2.32 7 3 C7 2.34 7 1.68 7 1 C5.68 1 4.36 1 3 1 C2.67 1.66 2.34 2.32 2 3 C1.01 2.67 0.02 2.34 -1 2 C-0.67 1.34 -0.34 0.68 0 0 Z M65 1 C69 2 69 2 69 2 Z " fill="#485461" transform="translate(434,756)"/>
<path d="M0 0 C0.33 0 0.66 0 1 0 C0.744 2.343 0.407 4.678 0 7 C-0.99 7.495 -0.99 7.495 -2 8 C-1.34 5.36 -0.68 2.72 0 0 Z M-3 8 C-3 11 -3 11 -4.723 12.98 C-5.881 14.073 -5.881 14.073 -7.062 15.188 C-10.053 18.075 -12.922 20.967 -15.625 24.125 C-18.365 27.319 -21.257 30.279 -24.258 33.227 C-26.047 35.048 -27.713 36.937 -29.375 38.875 C-31.966 41.885 -34.673 44.711 -37.5 47.5 C-40.921 50.875 -44.108 54.362 -47.23 58.012 C-49.821 60.922 -52.602 63.625 -55.398 66.336 C-57.086 67.924 -57.086 67.924 -58 70 C-58.66 70 -59.32 70 -60 70 C-58.542 66.605 -56.662 64.477 -54 61.938 C-51.626 59.663 -49.837 57.755 -48 55 C-47.34 55 -46.68 55 -46 55 C-45.798 54.469 -45.595 53.938 -45.387 53.391 C-43.395 49.958 -40.655 47.491 -37.812 44.75 C-33.556 40.577 -29.466 36.371 -25.605 31.824 C-23.195 29.085 -20.576 26.567 -17.977 24.008 C-15.417 21.408 -13.053 18.664 -10.676 15.898 C-8.237 13.136 -5.637 10.573 -3 8 Z M-61 70 C-61 73 -61 73 -63.406 75.699 C-64.43 76.703 -65.462 77.699 -66.5 78.688 C-67.025 79.199 -67.549 79.71 -68.09 80.236 C-69.387 81.498 -70.692 82.75 -72 84 C-72 81 -72 81 -70.609 79.316 C-69.996 78.738 -69.382 78.159 -68.75 77.562 C-68.114 76.954 -67.479 76.346 -66.824 75.719 C-65.921 74.868 -65.921 74.868 -65 74 C-64.196 73.196 -63.391 72.391 -62.562 71.562 C-62.047 71.047 -61.531 70.531 -61 70 Z M-75 84 C-74.34 84 -73.68 84 -73 84 C-74.457 87.363 -76.311 89.545 -78.914 92.109 C-79.675 92.863 -80.435 93.618 -81.219 94.395 C-82.013 95.172 -82.807 95.949 -83.625 96.75 C-84.427 97.543 -85.229 98.336 -86.055 99.152 C-88.032 101.106 -90.014 103.055 -92 105 C-92 102 -92 102 -89.805 99.547 C-88.835 98.608 -87.858 97.676 -86.875 96.75 C-83.568 93.559 -80.355 90.37 -77.438 86.812 C-76.633 85.884 -75.829 84.956 -75 84 Z M-95 105 C-94.34 105.33 -93.68 105.66 -93 106 C-93.99 107.32 -94.98 108.64 -96 110 C-96.66 109.67 -97.32 109.34 -98 109 C-97.01 107.68 -96.02 106.36 -95 105 Z M-100 110 C-99.34 110.33 -98.68 110.66 -98 111 C-98.33 111.66 -98.66 112.32 -99 113 C-99.66 113 -100.32 113 -101 113 C-100.67 112.01 -100.34 111.02 -100 110 Z M-103 113 C-102.01 113.495 -102.01 113.495 -101 114 C-118.315 130.107 -139.082 136.212 -162.25 136.312 C-163.912 136.321 -163.912 136.321 -165.608 136.329 C-173.615 136.257 -173.615 136.257 -177 134 C-176.321 134.016 -175.642 134.031 -174.943 134.048 C-155.774 134.435 -155.774 134.435 -137 131 C-135.973 130.722 -134.945 130.443 -133.887 130.156 C-122.346 126.684 -112.156 120.784 -103 113 Z " fill="#1675A9" transform="translate(495,622)"/>
<path d="M0 0 C1.179 0.111 2.359 0.222 3.574 0.336 C4.478 0.431 5.381 0.527 6.312 0.625 C6.312 0.955 6.312 1.285 6.312 1.625 C5.42 1.674 4.528 1.723 3.609 1.773 C2.439 1.848 1.268 1.923 0.062 2 C-1.678 2.104 -1.678 2.104 -3.453 2.211 C-6.394 2.587 -8.187 3.102 -10.688 4.625 C-8.758 -1.163 -5.327 -0.527 0 0 Z M-13.688 5.625 C-13.028 5.625 -12.367 5.625 -11.688 5.625 C-11.688 6.285 -11.688 6.945 -11.688 7.625 C-12.347 7.625 -13.008 7.625 -13.688 7.625 C-13.688 6.965 -13.688 6.305 -13.688 5.625 Z M-15.688 7.625 C-15.028 7.955 -14.367 8.285 -13.688 8.625 C-14.639 9.798 -15.599 10.963 -16.562 12.125 C-17.363 13.1 -17.363 13.1 -18.18 14.094 C-18.677 14.599 -19.175 15.104 -19.688 15.625 C-20.347 15.625 -21.008 15.625 -21.688 15.625 C-21.943 16.208 -22.198 16.79 -22.461 17.391 C-23.805 19.839 -25.306 21.442 -27.312 23.375 C-28.26 24.295 -28.26 24.295 -29.227 25.234 C-29.709 25.693 -30.191 26.152 -30.688 26.625 C-30.688 22.184 -27.795 20.163 -24.875 17.125 C-24.328 16.544 -23.781 15.962 -23.217 15.363 C-20.745 12.745 -18.241 10.165 -15.688 7.625 Z M-34.688 27.625 C-34.027 27.955 -33.368 28.285 -32.688 28.625 C-34.1 30.233 -35.517 31.836 -36.938 33.438 C-38.121 34.777 -38.121 34.777 -39.328 36.145 C-41.346 38.266 -43.287 39.968 -45.688 41.625 C-44.11 37.915 -41.78 35.326 -39.062 32.375 C-38.245 31.483 -37.428 30.591 -36.586 29.672 C-35.959 28.996 -35.333 28.321 -34.688 27.625 Z M-46.688 42.625 C-48.346 46.95 -51.559 49.719 -54.812 52.875 C-55.376 53.429 -55.939 53.984 -56.52 54.555 C-57.904 55.916 -59.295 57.271 -60.688 58.625 C-60.688 55.192 -60.355 54.887 -58.133 52.488 C-57.6 51.911 -57.068 51.335 -56.52 50.74 C-55.956 50.145 -55.393 49.55 -54.812 48.938 C-54.257 48.331 -53.701 47.724 -53.129 47.1 C-48.951 42.625 -48.951 42.625 -46.688 42.625 Z M-65.688 60.625 C-65.027 60.955 -64.368 61.285 -63.688 61.625 C-67.411 66.046 -70.983 70.203 -75.688 73.625 C-74.172 70.147 -72.11 67.669 -69.562 64.875 C-68.838 64.076 -68.114 63.277 -67.367 62.453 C-66.536 61.548 -66.536 61.548 -65.688 60.625 Z M-77.688 73.625 C-77.027 73.955 -76.368 74.285 -75.688 74.625 C-80.016 79.809 -84.453 84.352 -89.688 88.625 C-88.072 84.726 -85.408 81.912 -82.562 78.875 C-82.095 78.368 -81.627 77.862 -81.145 77.34 C-79.996 76.098 -78.842 74.861 -77.688 73.625 Z M-91.688 88.625 C-90.697 89.12 -90.697 89.12 -89.688 89.625 C-90.678 90.12 -90.678 90.12 -91.688 90.625 C-91.688 89.965 -91.688 89.305 -91.688 88.625 Z M-91.688 90.625 C-93.105 93.877 -94.813 95.939 -97.375 98.375 C-100.189 101.107 -102.833 103.888 -105.375 106.875 C-107.916 109.836 -110.517 112.319 -113.688 114.625 C-112.306 111.57 -110.683 109.295 -108.438 106.812 C-106.11 104.215 -103.81 101.605 -101.562 98.938 C-94.432 90.625 -94.432 90.625 -91.688 90.625 Z " fill="#283139" transform="translate(539.6875,624.375)"/>
<path d="M0 0 C0.33 0 0.66 0 1 0 C0.67 2.31 0.34 4.62 0 7 C-0.934 3.99 -1.044 3.133 0 0 Z M-2 7 C-1.67 7 -1.34 7 -1 7 C-1.48 13.466 -3.188 18.41 -5.938 24.25 C-6.298 25.039 -6.658 25.828 -7.029 26.641 C-8.627 30.125 -10.275 33.577 -12 37 C-12.66 37 -13.32 37 -14 37 C-13.002 33.674 -11.852 30.714 -10.25 27.625 C-6.845 21.048 -4.529 13.947 -2 7 Z M-15 37 C-14.67 37.99 -14.34 38.98 -14 40 C-14.33 40.66 -14.66 41.32 -15 42 C-15.66 42 -16.32 42 -17 42 C-16.34 40.35 -15.68 38.7 -15 37 Z M-18 42 C-17.67 42.99 -17.34 43.98 -17 45 C-18.336 47.312 -18.336 47.312 -20.375 50 C-21.105 50.966 -21.834 51.931 -22.586 52.926 C-26.318 57.678 -30.125 62.363 -34 67 C-32.653 70.965 -30.93 73.467 -28.062 76.5 C-25.25 79.486 -22.858 82.32 -21 86 C-21.33 86.66 -21.66 87.32 -22 88 C-24.324 85.259 -26.632 82.506 -28.938 79.75 C-29.597 78.973 -30.256 78.195 -30.936 77.395 C-31.564 76.64 -32.192 75.886 -32.84 75.109 C-33.421 74.418 -34.002 73.727 -34.601 73.015 C-36.047 70.932 -36.724 69.514 -37 67 C-35.48 64.695 -35.48 64.695 -33.188 62.125 C-29.352 57.669 -25.826 53.118 -22.438 48.312 C-21.996 47.688 -21.555 47.064 -21.1 46.42 C-20.064 44.949 -19.031 43.475 -18 42 Z M-21 88 C-20.34 88 -19.68 88 -19 88 C-19.33 88.99 -19.66 89.98 -20 91 C-20.33 90.01 -20.66 89.02 -21 88 Z M-19 91 C-18.34 91 -17.68 91 -17 91 C-15.292 93.905 -13.613 96.826 -11.938 99.75 C-11.21 100.987 -11.21 100.987 -10.467 102.25 C-10.012 103.049 -9.558 103.848 -9.09 104.672 C-8.666 105.405 -8.241 106.138 -7.804 106.894 C-6.855 109.38 -7.102 110.538 -8 113 C-9.463 110.273 -10.919 107.543 -12.375 104.812 C-12.788 104.044 -13.2 103.275 -13.625 102.482 C-15.629 98.717 -17.535 95.016 -19 91 Z M-7 113 C-4.261 115.366 -3.068 117.549 -2 121 C-1.875 123.812 -1.875 123.812 -2 126 C-4.705 121.942 -7 117.951 -7 113 Z M-2 126 C0 127 0 127 1.125 130.188 C1.917 133.637 2.171 136.484 2 140 C-0.985 135.523 -2 131.362 -2 126 Z " fill="#24282E" transform="translate(805,442)"/>
<path d="M0 0 C2.456 2.456 2.251 3.106 2.254 6.479 C2.26 7.421 2.265 8.363 2.271 9.334 C2.267 10.371 2.263 11.408 2.259 12.477 C2.262 13.566 2.266 14.656 2.269 15.778 C2.278 19.394 2.272 23.009 2.266 26.625 C2.267 29.128 2.269 31.632 2.271 34.135 C2.274 39.388 2.27 44.64 2.261 49.893 C2.25 55.969 2.253 62.046 2.264 68.123 C2.275 73.963 2.273 79.804 2.268 85.644 C2.266 88.132 2.268 90.62 2.273 93.108 C2.278 96.58 2.27 100.051 2.259 103.523 C2.263 104.56 2.267 105.597 2.271 106.666 C2.265 107.608 2.26 108.55 2.254 109.521 C2.253 110.342 2.252 111.164 2.252 112.01 C2 114 2 114 0 116 C-0.155 103.681 -0.303 91.362 -0.443 79.043 C-0.508 73.321 -0.576 67.598 -0.648 61.876 C-0.718 56.339 -0.783 50.802 -0.843 45.264 C-0.867 43.167 -0.892 41.07 -0.921 38.973 C-1.094 25.935 -0.867 13.012 0 0 Z " fill="#222529" transform="translate(528,454)"/>
<path d="M0 0 C3.3 0.33 6.6 0.66 10 1 C10.66 2.65 11.32 4.3 12 6 C7.766 4.689 3.926 3.056 0 1 C0 0.67 0 0.34 0 0 Z M12 6 C16.508 6.53 19.42 8.252 23 11 C23 11.66 23 12.32 23 13 C18.892 11.55 15.531 9.546 12 7 C12 6.67 12 6.34 12 6 Z M23 13 C24.32 13.33 25.64 13.66 27 14 C27 14.66 27 15.32 27 16 C25.68 15.34 24.36 14.68 23 14 C23 13.67 23 13.34 23 13 Z M27 16 C31.567 17.447 34.638 20.02 38.062 23.25 C38.622 23.772 39.181 24.294 39.757 24.832 C47.064 31.792 55.475 39.903 60 49 C59.505 49.99 59.505 49.99 59 51 C58.31 50.094 57.621 49.188 56.91 48.254 C51.815 41.628 46.718 35.389 40.582 29.672 C39 28 39 28 39 26 C38.428 25.743 37.855 25.487 37.266 25.223 C34.774 23.878 32.866 22.315 30.75 20.438 C30.044 19.817 29.337 19.197 28.609 18.559 C28.078 18.044 27.547 17.53 27 17 C27 16.67 27 16.34 27 16 Z M60 51 C60.66 51 61.32 51 62 51 C65.223 56.176 65.223 56.176 66 58 C65.67 58.99 65.34 59.98 65 61 C64.161 59.712 63.329 58.419 62.5 57.125 C62.036 56.406 61.572 55.686 61.094 54.945 C60 53 60 53 60 51 Z M67 63 C67.99 63.495 67.99 63.495 69 64 C68.67 64.99 68.34 65.98 68 67 C67.67 65.68 67.34 64.36 67 63 Z M69 67 C72.335 69.7 73.564 73.033 75 77 C75.188 79.938 75.188 79.938 75 82 C73.2 79.3 72.066 76.933 70.875 73.938 C70.522 73.06 70.169 72.182 69.805 71.277 C69 69 69 69 69 67 Z M75 82 C75.99 82.495 75.99 82.495 77 83 C77.594 85.649 77.742 88.292 78 91 C75.875 87.812 75.498 85.735 75 82 Z M78 91 C79 95 79 95 79 95 Z M79 95 C80 99 80 99 80 99 Z " fill="#23272C" transform="translate(727,279)"/>
<path d="M0 0 C0.688 1.688 0.688 1.688 1 4 C-0.438 6.75 -0.438 6.75 -2 9 C-3 6 -3 6 -1.562 2.812 C-1.047 1.884 -0.531 0.956 0 0 Z M-5 11 C-4 14 -4 14 -5.117 16.496 C-13.177 29.983 -22.707 42.071 -34 53 C-34.66 52.67 -35.32 52.34 -36 52 C-35.227 51.178 -34.453 50.355 -33.656 49.508 C-22.406 37.485 -13.379 25.177 -5 11 Z M-38 53 C-37.34 53.33 -36.68 53.66 -36 54 C-42.975 61.44 -51.603 68.879 -61 73 C-61.99 72.67 -62.98 72.34 -64 72 C-63.105 71.443 -62.211 70.886 -61.289 70.312 C-53.076 65.148 -44.897 59.897 -38 53 Z M-64 73 C-64 73.66 -64 74.32 -64 75 C-66.354 76.429 -67.48 77.087 -70.25 76.625 C-70.827 76.419 -71.405 76.212 -72 76 C-66.25 73 -66.25 73 -64 73 Z " fill="#262A2F" transform="translate(799,667)"/>
<path d="M0 0 C1.938 0.75 1.938 0.75 4 2 C4.75 4.125 4.75 4.125 5 6 C3.312 4.355 1.646 2.687 0 1 C0 0.67 0 0.34 0 0 Z M5 6 C5.66 6 6.32 6 7 6 C6.67 6.99 6.34 7.98 6 9 C5.67 8.01 5.34 7.02 5 6 Z M7 9 C7.66 9 8.32 9 9 9 C10.708 11.905 12.387 14.826 14.062 17.75 C14.79 18.987 14.79 18.987 15.533 20.25 C15.988 21.049 16.442 21.848 16.91 22.672 C17.334 23.405 17.759 24.138 18.196 24.894 C19.145 27.38 18.898 28.538 18 31 C16.537 28.273 15.081 25.543 13.625 22.812 C13.212 22.044 12.8 21.275 12.375 20.482 C10.371 16.717 8.465 13.016 7 9 Z M19 31 C21.739 33.366 22.932 35.549 24 39 C24.125 41.812 24.125 41.812 24 44 C21.295 39.942 19 35.951 19 31 Z M24 44 C26 45 26 45 27.125 48.188 C27.917 51.637 28.171 54.484 28 58 C25.015 53.523 24 49.362 24 44 Z " fill="#25292E" transform="translate(779,524)"/>
<path d="M0 0 C20.13 0 40.26 0 61 0 C60.34 0.99 59.68 1.98 59 3 C57.68 3 56.36 3 55 3 C55 2.34 55 1.68 55 1 C53.68 1 52.36 1 51 1 C51 1.66 51 2.32 51 3 C48.69 3 46.38 3 44 3 C44 2.67 44 2.34 44 2 C41.03 1.67 38.06 1.34 35 1 C35 1.66 35 2.32 35 3 C34.336 2.928 33.672 2.856 32.988 2.781 C32.105 2.688 31.222 2.596 30.312 2.5 C29.442 2.407 28.572 2.314 27.676 2.219 C25.1 2.008 22.583 1.966 20 2 C17.372 2 14.918 1.802 12.312 1.5 C11.504 1.407 10.696 1.314 9.863 1.219 C9.248 1.147 8.634 1.074 8 1 C7.67 1.66 7.34 2.32 7 3 C7 2.34 7 1.68 7 1 C5.68 1 4.36 1 3 1 C2.67 1.66 2.34 2.32 2 3 C1.01 2.67 0.02 2.34 -1 2 C-0.67 1.34 -0.34 0.68 0 0 Z " fill="#4A5764" transform="translate(434,756)"/>
<path d="M0 0 C21.12 0 42.24 0 64 0 C63.34 0.33 62.68 0.66 62 1 C61.67 1.66 61.34 2.32 61 3 C60.443 2.814 59.886 2.629 59.312 2.438 C56.602 1.925 54.676 2.437 52 3 C51.34 2.67 50.68 2.34 50 2 C48.514 1.905 47.024 1.869 45.535 1.867 C44.212 1.865 44.212 1.865 42.861 1.863 C41.938 1.867 41.014 1.871 40.062 1.875 C39.143 1.871 38.223 1.867 37.275 1.863 C35.95 1.865 35.95 1.865 34.598 1.867 C33.383 1.869 33.383 1.869 32.145 1.871 C29.814 1.918 29.814 1.918 27 3 C27 2.34 27 1.68 27 1 C26.34 1 25.68 1 25 1 C25 1.66 25 2.32 25 3 C24.34 2.67 23.68 2.34 23 2 C20.629 1.77 18.253 1.589 15.875 1.438 C14.594 1.354 13.312 1.27 11.992 1.184 C10.511 1.093 10.511 1.093 9 1 C9 1.66 9 2.32 9 3 C6.36 3 3.72 3 1 3 C0.67 2.01 0.34 1.02 0 0 Z M4 1 C8 2 8 2 8 2 Z " fill="#485461" transform="translate(495,756)"/>
<path d="M0 0 C0 3 0 3 -1.934 5.191 C-2.76 5.974 -3.586 6.756 -4.438 7.562 C-7.638 10.469 -7.638 10.469 -10 14 C-10.66 14 -11.32 14 -12 14 C-10.413 10.097 -7.866 7.665 -4.875 4.75 C-3.965 3.858 -3.055 2.966 -2.117 2.047 C-1.419 1.371 -0.72 0.696 0 0 Z M-13 14 C-13 17 -13 17 -15.406 19.699 C-16.43 20.703 -17.462 21.699 -18.5 22.688 C-19.025 23.199 -19.549 23.71 -20.09 24.236 C-21.387 25.498 -22.692 26.75 -24 28 C-24 25 -24 25 -22.609 23.316 C-21.996 22.738 -21.382 22.159 -20.75 21.562 C-20.114 20.954 -19.479 20.346 -18.824 19.719 C-17.921 18.868 -17.921 18.868 -17 18 C-16.196 17.196 -15.391 16.391 -14.562 15.562 C-14.047 15.047 -13.531 14.531 -13 14 Z M-25 28 C-26.536 31.681 -28.782 33.988 -31.625 36.75 C-32.851 37.949 -32.851 37.949 -34.102 39.172 C-34.728 39.775 -35.355 40.378 -36 41 C-36.66 40.67 -37.32 40.34 -38 40 C-27.937 28 -27.937 28 -25 28 Z " fill="#1772A5" transform="translate(447,678)"/>
<path d="M0 0 C0.33 0 0.66 0 1 0 C1 10.89 1 21.78 1 33 C0.67 33 0.34 33 0 33 C0 22.11 0 11.22 0 0 Z M-1 33 C-0.67 33.99 -0.34 34.98 0 36 C-5.339 40.729 -9.324 41.139 -16.312 41.062 C-17.381 41.053 -18.45 41.044 -19.551 41.035 C-20.359 41.024 -21.167 41.012 -22 41 C-21.67 40.34 -21.34 39.68 -21 39 C-18.234 38.621 -18.234 38.621 -14.75 38.438 C-8.812 38.146 -8.812 38.146 -3 37 C-1.64 35.032 -1.64 35.032 -1 33 Z " fill="#1A1E22" transform="translate(675,585)"/>
<path d="M0 0 C0.66 0.33 1.32 0.66 2 1 C0.35 2.32 -1.3 3.64 -3 5 C-1.125 1.125 -1.125 1.125 0 0 Z M-5 5 C-4.01 5.495 -4.01 5.495 -3 6 C-3.99 6.495 -3.99 6.495 -5 7 C-5 6.34 -5 5.68 -5 5 Z M-5 7 C-6.417 10.252 -8.125 12.314 -10.688 14.75 C-13.501 17.482 -16.146 20.263 -18.688 23.25 C-21.228 26.211 -23.83 28.694 -27 31 C-25.618 27.945 -23.995 25.67 -21.75 23.188 C-19.423 20.59 -17.123 17.98 -14.875 15.312 C-7.745 7 -7.745 7 -5 7 Z " fill="#262E35" transform="translate(453,708)"/>
<path d="M0 0 C0.688 1.688 0.688 1.688 1 4 C-0.438 6.75 -0.438 6.75 -2 9 C-3 6 -3 6 -1.562 2.812 C-1.047 1.884 -0.531 0.956 0 0 Z M-5 11 C-4 14 -4 14 -5.117 16.496 C-14.141 31.596 -14.141 31.596 -20 38 C-20.99 38 -21.98 38 -23 38 C-22.455 37.308 -21.909 36.616 -21.348 35.902 C-15.225 27.958 -10.016 19.68 -5 11 Z " fill="#24282D" transform="translate(799,667)"/>
<path d="M0 0 C1.179 0.111 2.359 0.222 3.574 0.336 C4.478 0.431 5.381 0.527 6.312 0.625 C6.312 0.955 6.312 1.285 6.312 1.625 C5.42 1.674 4.528 1.723 3.609 1.773 C2.439 1.848 1.268 1.923 0.062 2 C-1.678 2.104 -1.678 2.104 -3.453 2.211 C-6.394 2.587 -8.187 3.102 -10.688 4.625 C-8.758 -1.163 -5.327 -0.527 0 0 Z M-13.688 5.625 C-13.028 5.625 -12.367 5.625 -11.688 5.625 C-11.688 6.285 -11.688 6.945 -11.688 7.625 C-12.347 7.625 -13.008 7.625 -13.688 7.625 C-13.688 6.965 -13.688 6.305 -13.688 5.625 Z M-15.688 7.625 C-15.028 7.955 -14.367 8.285 -13.688 8.625 C-14.639 9.798 -15.599 10.963 -16.562 12.125 C-17.363 13.1 -17.363 13.1 -18.18 14.094 C-18.677 14.599 -19.175 15.104 -19.688 15.625 C-20.347 15.625 -21.008 15.625 -21.688 15.625 C-21.935 16.202 -22.183 16.78 -22.438 17.375 C-23.854 19.925 -25.564 21.643 -27.688 23.625 C-28.348 23.295 -29.007 22.965 -29.688 22.625 C-27.918 20.687 -26.147 18.749 -24.375 16.812 C-23.875 16.265 -23.376 15.718 -22.861 15.154 C-20.518 12.594 -18.176 10.046 -15.688 7.625 Z " fill="#292F34" transform="translate(539.6875,624.375)"/>
<path d="M0 0 C3.993 1.641 6.887 4.411 10 7.312 C10.521 7.786 11.042 8.26 11.578 8.748 C14.699 11.629 17.426 14.603 20 18 C17 18 17 18 15.176 16.539 C14.561 15.907 13.946 15.276 13.312 14.625 C12.69 13.999 12.067 13.372 11.426 12.727 C10 11 10 11 10 9 C9.407 8.745 8.814 8.49 8.203 8.227 C5.788 6.882 4.488 5.508 2.75 3.375 C2.229 2.743 1.708 2.112 1.172 1.461 C0.785 0.979 0.398 0.497 0 0 Z " fill="#292E34" transform="translate(756,296)"/>
<path d="M0 0 C-1.587 3.903 -4.134 6.335 -7.125 9.25 C-8.035 10.142 -8.945 11.034 -9.883 11.953 C-10.581 12.629 -11.28 13.304 -12 14 C-12.66 13.67 -13.32 13.34 -14 13 C-12.048 10.827 -10.089 8.662 -8.125 6.5 C-7.569 5.88 -7.014 5.26 -6.441 4.621 C-5.906 4.035 -5.371 3.448 -4.82 2.844 C-4.328 2.299 -3.836 1.754 -3.329 1.193 C-2 0 -2 0 0 0 Z M-16 15 C-16 15.99 -16 16.98 -16 18 C-16.99 18 -17.98 18 -19 18 C-18.01 17.01 -17.02 16.02 -16 15 Z " fill="#292F34" transform="translate(777,706)"/>
<path d="M0 0 C1 4 1 4 1 4 Z M1 4 C1.66 5.32 2.32 6.64 3 8 C2.34 7.67 1.68 7.34 1 7 C1 6.01 1 5.02 1 4 Z M3 8 C7.95 8.33 12.9 8.66 18 9 C14.777 11.149 13.217 11.408 9.438 11.75 C8.467 11.848 7.496 11.946 6.496 12.047 C4 12 4 12 2 10 C2.33 9.34 2.66 8.68 3 8 Z " fill="#45515C" transform="translate(425,744)"/>
<path d="M0 0 C7.26 0 14.52 0 22 0 C21.01 0.495 21.01 0.495 20 1 C19.67 1.66 19.34 2.32 19 3 C18.443 2.814 17.886 2.629 17.312 2.438 C14.602 1.925 12.676 2.437 10 3 C9.34 2.67 8.68 2.34 8 2 C6.627 1.931 5.25 1.915 3.875 1.938 C1.957 1.968 1.957 1.968 0 2 C0 1.34 0 0.68 0 0 Z " fill="#485561" transform="translate(537,756)"/>
<path d="M0 0 C0.66 0.33 1.32 0.66 2 1 C0.35 2.32 -1.3 3.64 -3 5 C-1.125 1.125 -1.125 1.125 0 0 Z M-5 5 C-4.34 5.33 -3.68 5.66 -3 6 C-5.578 8.648 -7.916 10.944 -11 13 C-9.557 9.634 -7.667 7.49 -5 5 Z " fill="#282F36" transform="translate(467,693)"/>
<path d="M0 0 C0.66 0.33 1.32 0.66 2 1 C0.35 2.32 -1.3 3.64 -3 5 C-1.125 1.125 -1.125 1.125 0 0 Z M-5 5 C-4.01 5.495 -4.01 5.495 -3 6 C-3.99 6.495 -3.99 6.495 -5 7 C-5 6.34 -5 5.68 -5 5 Z M-7 7 C-6.34 7 -5.68 7 -5 7 C-5.66 8.32 -6.32 9.64 -7 11 C-7.99 11 -8.98 11 -10 11 C-8.625 9 -8.625 9 -7 7 Z M-12 12 C-11.01 12.495 -11.01 12.495 -10 13 C-10.99 13.495 -10.99 13.495 -12 14 C-12 13.34 -12 12.68 -12 12 Z " fill="#252C33" transform="translate(453,708)"/>
<path d="M0 0 C0.66 0 1.32 0 2 0 C0.651 3.837 -1.078 6.652 -3.625 9.812 C-4.572 10.998 -4.572 10.998 -5.539 12.207 C-6.262 13.095 -6.262 13.095 -7 14 C-7.66 13.67 -8.32 13.34 -9 13 C-7.55 10.828 -6.09 8.662 -4.625 6.5 C-4.212 5.88 -3.8 5.26 -3.375 4.621 C-2.301 3.045 -1.155 1.518 0 0 Z " fill="#2A2F34" transform="translate(786,485)"/>
<path d="M0 0 C4.62 0 9.24 0 14 0 C13.01 1.485 13.01 1.485 12 3 C10.68 3 9.36 3 8 3 C8 2.34 8 1.68 8 1 C6.68 1 5.36 1 4 1 C4 1.66 4 2.32 4 3 C2.68 3 1.36 3 0 3 C0 2.01 0 1.02 0 0 Z " fill="#495663" transform="translate(481,756)"/>
<path d="M0 0 C3.937 1.312 6.227 2.919 9 6 C8.34 7.32 7.68 8.64 7 10 C6.629 9.051 6.258 8.102 5.875 7.125 C4.26 3.744 4.26 3.744 0.812 2.625 C-0.116 2.419 -1.044 2.212 -2 2 C-1.34 1.34 -0.68 0.68 0 0 Z " fill="#2A2F34" transform="translate(667,577)"/>
<path d="M0 0 C0.33 0 0.66 0 1 0 C1.492 6.4 1.492 6.4 -1 9.438 C-1.99 10.211 -1.99 10.211 -3 11 C-3.99 10.67 -4.98 10.34 -6 10 C-5.381 9.835 -4.763 9.67 -4.125 9.5 C-0.722 7.098 -0.774 3.998 0 0 Z " fill="#2E353C" transform="translate(674,435)"/>
<path d="M0 0 C0.66 0 1.32 0 2 0 C0.473 3.436 -1.599 6.119 -4 9 C-4.66 8.67 -5.32 8.34 -6 8 C-5.05 6.661 -4.089 5.329 -3.125 4 C-2.591 3.258 -2.058 2.515 -1.508 1.75 C-1.01 1.173 -0.513 0.595 0 0 Z " fill="#262A2E" transform="translate(782,697)"/>
<path d="M0 0 C1.173 0.951 2.338 1.911 3.5 2.875 C4.15 3.409 4.799 3.942 5.469 4.492 C5.974 4.99 6.479 5.487 7 6 C7 6.66 7 7.32 7 8 C4.085 6.926 2.222 6.222 0 4 C0 2.68 0 1.36 0 0 Z " fill="#2B3138" transform="translate(529,570)"/>
<path d="M0 0 C0.66 0 1.32 0 2 0 C0.951 2.622 0.351 3.794 -2.125 5.25 C-2.744 5.497 -3.362 5.745 -4 6 C-4.66 5.34 -5.32 4.68 -6 4 C-4.35 3.67 -2.7 3.34 -1 3 C-0.67 2.01 -0.34 1.02 0 0 Z " fill="#2C3238" transform="translate(673,619)"/>
<path d="M0 0 C1.65 1.65 3.3 3.3 5 5 C4.01 5.33 3.02 5.66 2 6 C1.01 4.35 0.02 2.7 -1 1 C-0.67 0.67 -0.34 0.34 0 0 Z " fill="#2D3238" transform="translate(776,518)"/>
<path d="M0 0 C0 0.99 0 1.98 0 3 C-1.98 3.99 -1.98 3.99 -4 5 C-3 2 -3 2 0 0 Z " fill="#262A2E" transform="translate(757,724)"/>
<path d="M0 0 C0 0.66 0 1.32 0 2 C-0.66 2 -1.32 2 -2 2 C-2.66 3.65 -3.32 5.3 -4 7 C-4.688 5.188 -4.688 5.188 -5 3 C-3.384 0.846 -2.745 0 0 0 Z " fill="#282E34" transform="translate(534,269)"/>
<path d="M0 0 C0.99 0.33 1.98 0.66 3 1 C2.34 2.32 1.68 3.64 1 5 C0.67 3.35 0.34 1.7 0 0 Z " fill="#31363C" transform="translate(673,582)"/>
<path d="M0 0 C0.99 0.33 1.98 0.66 3 1 C2.67 1.99 2.34 2.98 2 4 C1.34 2.68 0.68 1.36 0 0 Z " fill="#24272C" transform="translate(791,542)"/>
<path d="M0 0 C0.66 0 1.32 0 2 0 C1.67 0.99 1.34 1.98 1 3 C0.34 3 -0.32 3 -1 3 C-0.67 2.01 -0.34 1.02 0 0 Z " fill="#292E33" transform="translate(782,491)"/>
<path d="M0 0 C3 1 3 1 3 1 Z " fill="#3F4A54" transform="translate(538,758)"/>
<path d="M0 0 C3 1 3 1 3 1 Z " fill="#018AD2" transform="translate(277,577)"/>
<path d="M0 0 C3 1 3 1 3 1 Z " fill="#018AD2" transform="translate(256,577)"/>
<path d="M0 0 C0.66 0 1.32 0 2 0 C1.67 0.66 1.34 1.32 1 2 C0.67 1.34 0.34 0.68 0 0 Z " fill="#3F4A54" transform="translate(750,288)"/>
<path d="M0 0 C3 1 3 1 3 1 Z " fill="#3F4A54" transform="translate(716,272)"/>
<path d="M0 0 C2 1 2 1 2 1 Z " fill="#157DB6" transform="translate(340,759)"/>
<path d="M0 0 C2 1 2 1 2 1 Z " fill="#3F4A54" transform="translate(667,758)"/>
<path d="M0 0 C2 1 2 1 2 1 Z " fill="#3F4A54" transform="translate(659,758)"/>
<path d="M0 0 C2 1 2 1 2 1 Z " fill="#3F4A54" transform="translate(643,758)"/>
<path d="M0 0 C2 1 2 1 2 1 Z " fill="#3F4A54" transform="translate(635,758)"/>
<path d="M0 0 C2 1 2 1 2 1 Z " fill="#3F4A54" transform="translate(585,758)"/>
<path d="M0 0 C2 1 2 1 2 1 Z " fill="#3F4A54" transform="translate(542,758)"/>
<path d="M0 0 C2 1 2 1 2 1 Z " fill="#44505C" transform="translate(531,758)"/>
<path d="M0 0 C2 1 2 1 2 1 Z " fill="#3F4A54" transform="translate(526,758)"/>
<path d="M0 0 C2 1 2 1 2 1 Z " fill="#3F4A54" transform="translate(515,758)"/>
<path d="M0 0 C2 1 2 1 2 1 Z " fill="#3F4A54" transform="translate(507,758)"/>
<path d="M0 0 C2 1 2 1 2 1 Z " fill="#44505C" transform="translate(475,758)"/>
<path d="M0 0 C2 1 2 1 2 1 Z " fill="#4A5764" transform="translate(470,758)"/>
<path d="M0 0 C2 1 2 1 2 1 Z " fill="#3F4A54" transform="translate(699,755)"/>
<path d="" fill="#3D6987" transform="translate(0,0)"/>
<path d="" fill="#4A5764" transform="translate(0,0)"/>
<path d="" fill="#4A5764" transform="translate(0,0)"/>
<path d="" fill="#4A5764" transform="translate(0,0)"/>
<path d="" fill="#141619" transform="translate(0,0)"/>
<path d="" fill="#157DB6" transform="translate(0,0)"/>
<path d="" fill="#3F4A54" transform="translate(0,0)"/>
<path d="" fill="#3F4A54" transform="translate(0,0)"/>
<path d="" fill="#3F4A54" transform="translate(0,0)"/>
<path d="" fill="#3F4A54" transform="translate(0,0)"/>
<path d="" fill="#3F4A54" transform="translate(0,0)"/>
<path d="" fill="#3F4A54" transform="translate(0,0)"/>
<path d="" fill="#3F4A54" transform="translate(0,0)"/>
<path d="" fill="#3F4A54" transform="translate(0,0)"/>
<path d="" fill="#3F4A54" transform="translate(0,0)"/>
<path d="" fill="#3F4A54" transform="translate(0,0)"/>
<path d="" fill="#3F4A54" transform="translate(0,0)"/>
<path d="" fill="#3F4A54" transform="translate(0,0)"/>
<path d="" fill="#3F4A54" transform="translate(0,0)"/>
<path d="" fill="#3F4A54" transform="translate(0,0)"/>
<path d="" fill="#4A5764" transform="translate(0,0)"/>
<path d="" fill="#4A5764" transform="translate(0,0)"/>
<path d="" fill="#4A5764" transform="translate(0,0)"/>
<path d="" fill="#3F4A54" transform="translate(0,0)"/>
<path d="" fill="#3F4A54" transform="translate(0,0)"/>
<path d="" fill="#3F4A54" transform="translate(0,0)"/>
<path d="" fill="#3F4A54" transform="translate(0,0)"/>
<path d="" fill="#3F4A54" transform="translate(0,0)"/>
<path d="" fill="#3F4A54" transform="translate(0,0)"/>
<path d="" fill="#4A5764" transform="translate(0,0)"/>
<path d="" fill="#3F4A54" transform="translate(0,0)"/>
<path d="" fill="#157DB6" transform="translate(0,0)"/>
<path d="" fill="#3F4A54" transform="translate(0,0)"/>
<path d="" fill="#3D6987" transform="translate(0,0)"/>
<path d="" fill="#4A5764" transform="translate(0,0)"/>
<path d="" fill="#3D6987" transform="translate(0,0)"/>
<path d="" fill="#3D6987" transform="translate(0,0)"/>
<path d="" fill="#3D6987" transform="translate(0,0)"/>
<path d="" fill="#157DB6" transform="translate(0,0)"/>
<path d="" fill="#3D6987" transform="translate(0,0)"/>
<path d="" fill="#3F4A54" transform="translate(0,0)"/>
<path d="" fill="#3F4A54" transform="translate(0,0)"/>
<path d="" fill="#3F4A54" transform="translate(0,0)"/>
<path d="" fill="#3D6987" transform="translate(0,0)"/>
<path d="" fill="#3F4A54" transform="translate(0,0)"/>
<path d="" fill="#3F4A54" transform="translate(0,0)"/>
<path d="" fill="#4A5764" transform="translate(0,0)"/>
<path d="" fill="#4A5764" transform="translate(0,0)"/>
<path d="" fill="#4A5764" transform="translate(0,0)"/>
<path d="" fill="#4A5764" transform="translate(0,0)"/>
<path d="" fill="#018AD2" transform="translate(0,0)"/>
<path d="" fill="#018AD2" transform="translate(0,0)"/>
<path d="" fill="#018AD2" transform="translate(0,0)"/>
<path d="" fill="#018AD2" transform="translate(0,0)"/>
<path d="" fill="#018AD2" transform="translate(0,0)"/>
<path d="" fill="#018AD2" transform="translate(0,0)"/>
<path d="" fill="#018AD2" transform="translate(0,0)"/>
<path d="" fill="#018AD2" transform="translate(0,0)"/>
<path d="" fill="#018AD2" transform="translate(0,0)"/>
<path d="" fill="#018AD2" transform="translate(0,0)"/>
<path d="" fill="#3F4A54" transform="translate(0,0)"/>
<path d="" fill="#3F4A54" transform="translate(0,0)"/>
<path d="" fill="#4A5764" transform="translate(0,0)"/>
<path d="" fill="#3F4A54" transform="translate(0,0)"/>
<path d="" fill="#4A5764" transform="translate(0,0)"/>
<path d="" fill="#3F4A54" transform="translate(0,0)"/>
<path d="" fill="#3F4A54" transform="translate(0,0)"/>
<path d="" fill="#4A5764" transform="translate(0,0)"/>
<path d="" fill="#4A5764" transform="translate(0,0)"/>
<path d="" fill="#4A5764" transform="translate(0,0)"/>
<path d="" fill="#3F4A54" transform="translate(0,0)"/>
<path d="" fill="#4A5764" transform="translate(0,0)"/>
<path d="" fill="#4A5764" transform="translate(0,0)"/>
<path d="" fill="#3F4A54" transform="translate(0,0)"/>
<path d="" fill="#3F4A54" transform="translate(0,0)"/>
<path d="" fill="#3F4A54" transform="translate(0,0)"/>
<path d="" fill="#4A5764" transform="translate(0,0)"/>
<path d="" fill="#4A5764" transform="translate(0,0)"/>
<path d="" fill="#3F4A54" transform="translate(0,0)"/>
<path d="" fill="#3F4A54" transform="translate(0,0)"/>
<path d="" fill="#157DB6" transform="translate(0,0)"/>
<path d="" fill="#157DB6" transform="translate(0,0)"/>
</svg>